<svg width="479" height="479" viewBox="0 0 479 479" fill="none" xmlns="http://www.w3.org/2000/svg">
<rect x="315.375" y="259.262" width="71.1722" height="140.085" rx="35.5861" transform="rotate(90 315.375 259.262)" fill="#E9E9E9"/>
<circle cx="239.5" cy="239.5" r="239.5" fill="#242424"/>
<path d="M234.909 358.88C218.482 358.88 203.549 355.787 190.109 349.6C176.882 343.413 166.536 334.88 159.069 324C151.602 313.12 147.869 300.853 147.869 287.2C147.869 277.6 151.922 270.987 160.029 267.36C168.349 263.52 180.082 261.6 195.229 261.6C194.589 265.013 194.269 270.133 194.269 276.96C194.269 290.4 197.682 300.64 204.509 307.68C211.336 314.507 221.469 317.92 234.909 317.92C248.136 317.92 258.162 314.08 264.989 306.4C272.029 298.72 275.549 287.627 275.549 273.12V172.64H245.149C234.482 172.64 226.482 169.333 221.149 162.72C216.029 155.893 213.469 145.653 213.469 132H299.549C305.949 132 311.389 134.133 315.869 138.4C320.349 142.453 322.589 147.467 322.589 153.44V273.12C322.589 289.547 318.749 304.267 311.069 317.28C303.602 330.293 293.149 340.533 279.709 348C266.482 355.253 251.549 358.88 234.909 358.88Z" fill="#D7D5D3"/>
</svg>
